<?xml version="1.0" encoding="utf-8"?>
<!-- Generator: Adobe Illustrator 27.7.0, SVG Export Plug-In . SVG Version: 6.00 Build 0)  -->
<svg version="1.1" id="Layer_1" xmlns="http://www.w3.org/2000/svg" xmlns:xlink="http://www.w3.org/1999/xlink" x="0px" y="0px"
	 viewBox="0 0 500 500" style="enable-background:new 0 0 500 500;" xml:space="preserve">
<style type="text/css">
	.st0{display:none;}
	.st1{display:inline;fill-rule:evenodd;clip-rule:evenodd;fill:url(#XMLID_00000034088877773823289380000007456699332047687065_);}
	.st2{display:inline;}
	.st3{fill-rule:evenodd;clip-rule:evenodd;fill:#FFFFFF;}
	.st4{display:inline;fill-rule:evenodd;clip-rule:evenodd;fill:#1AA2F8;}
	.st5{display:inline;fill-rule:evenodd;clip-rule:evenodd;fill:url(#XMLID_00000006693890630520029350000014742115216402541189_);}
	.st6{display:inline;fill-rule:evenodd;clip-rule:evenodd;fill:url(#XMLID_00000021841083987079170270000012345345867900773270_);}
	.st7{display:inline;fill-rule:evenodd;clip-rule:evenodd;fill:url(#XMLID_00000171680200233710095390000003679334735138129334_);}
	.st8{display:inline;fill-rule:evenodd;clip-rule:evenodd;fill:#FFFFFF;}
	.st9{display:inline;fill-rule:evenodd;clip-rule:evenodd;}
	.st10{fill:#FFFFFF;}
	.st11{fill-rule:evenodd;clip-rule:evenodd;fill:#0B66C3;}
	.st12{display:none;fill:#CACACA;}
	.st13{display:inline;fill-rule:evenodd;clip-rule:evenodd;fill:#FAA61A;}
</style>
<g id="XMLID_4_" class="st0">
	
		<linearGradient id="XMLID_00000011745031302677275930000004904002806633586069_" gradientUnits="userSpaceOnUse" x1="249.907" y1="24.8256" x2="249.907" y2="474.8256">
		<stop  offset="0" style="stop-color:#19AEFF"/>
		<stop  offset="0.9952" style="stop-color:#0065E7"/>
	</linearGradient>
	
		<path id="XMLID_18_" style="display:inline;fill-rule:evenodd;clip-rule:evenodd;fill:url(#XMLID_00000011745031302677275930000004904002806633586069_);" d="
		M403.1,474.8H96.7c-39.5,0-71.8-32.3-71.8-71.8V96.6c0-39.5,32.3-71.8,71.8-71.8h306.4c39.5,0,71.8,32.3,71.8,71.8V403
		C474.9,442.5,442.6,474.8,403.1,474.8z"/>
	<g id="XMLID_6_" class="st2">
		<path id="XMLID_147_" class="st3" d="M207.8,419.6h61.3V278.1h45.3l9.1-57.2h-54.4v-43.2c0-16,15.3-25.1,30-25.1h26.5v-47.4
			l-47.4-2.1c-45.3-2.8-70.4,32.8-70.4,75.3V221h-51.6v57.2h51.6V419.6z"/>
	</g>
</g>
<g id="XMLID_14_" class="st0">
	<path id="XMLID_23_" class="st4" d="M403.1,474.8H96.7c-39.5,0-71.8-32.3-71.8-71.8V96.6c0-39.5,32.3-71.8,71.8-71.8h306.4
		c39.5,0,71.8,32.3,71.8,71.8V403C474.9,442.5,442.6,474.8,403.1,474.8z"/>
	<g id="XMLID_159_" class="st2">
		<path id="XMLID_36_" class="st3" d="M252.2,210c-11.1-58.3,59.1-93.1,100.4-51c0,0,18.5-5.2,34.7-15.5c0,0-5.9,19.9-25.8,32.5
			c0,0,22.2-3,31.8-8.9c0,0-9.6,19.9-27.3,27.3c9.6,133.7-134.4,214.9-251.1,148.5c0,0,57.6,3,82-25.1c0,0-35.5,3-53.2-39.9
			c0,0,13.3,5.2,26.6-1.5c0,0-41.4-6.6-45.1-56.1c0,0,13.3,10.3,28.1,6.6c0,0-45.8-27.3-19.9-76.8
			C133.3,150.2,182.1,212.2,252.2,210L252.2,210z"/>
	</g>
</g>
<g id="XMLID_9_" class="st0">
	
		<linearGradient id="XMLID_00000008120018029247926250000000786988713029345697_" gradientUnits="userSpaceOnUse" x1="30.2248" y1="64.1797" x2="469.5892" y2="435.4715">
		<stop  offset="0" style="stop-color:#0496FB"/>
		<stop  offset="0.1383" style="stop-color:#3F72FF"/>
		<stop  offset="0.2795" style="stop-color:#784AFF"/>
		<stop  offset="0.4211" style="stop-color:#B038EE"/>
		<stop  offset="0.5656" style="stop-color:#CD40BE"/>
		<stop  offset="0.7198" style="stop-color:#FF415A"/>
		<stop  offset="0.8647" style="stop-color:#F7941E"/>
		<stop  offset="0.9442" style="stop-color:#FFE800"/>
	</linearGradient>
	
		<path id="XMLID_21_" style="display:inline;fill-rule:evenodd;clip-rule:evenodd;fill:url(#XMLID_00000008120018029247926250000000786988713029345697_);" d="
		M403.1,474.8H96.7c-39.5,0-71.8-32.3-71.8-71.8V96.6c0-39.5,32.3-71.8,71.8-71.8h306.4c39.5,0,71.8,32.3,71.8,71.8V403
		C474.9,442.5,442.6,474.8,403.1,474.8z"/>
	<g id="XMLID_8_" class="st2">
		<path id="XMLID_3_" class="st3" d="M183.9,106.7h132.3c42.5,0,77.4,35,77.4,77.4v131.6c0,42.5-35,77.4-77.4,77.4H183.9
			c-42.5,0-77.4-35-77.4-77.4V184.2C106.5,141.7,141.4,106.7,183.9,106.7L183.9,106.7z M327.2,156.8L327.2,156.8
			c8.9,0,16.4,7.5,16.4,16.4l0,0c0,8.9-7.5,16.4-16.4,16.4l0,0c-9.6,0-16.4-7.5-16.4-16.4l0,0C310.7,164.3,317.6,156.8,327.2,156.8
			L327.2,156.8z M249.7,171.9h0.7c42.5,0,78.1,35.6,78.1,78.1l0,0c0,43.2-35.6,78.1-78.1,78.1h-0.7c-42.5,0-77.4-35-77.4-78.1l0,0
			C172.3,207.5,207.2,171.9,249.7,171.9L249.7,171.9z M249.7,198.6h0.7c28.1,0,51.4,23.3,51.4,51.4l0,0c0,28.8-23.3,52.1-51.4,52.1
			h-0.7c-28.1,0-51.4-23.3-51.4-52.1l0,0C198.3,221.9,221.6,198.6,249.7,198.6L249.7,198.6z M184.6,131.4h130.9
			c29.5,0,53.5,24,53.5,53.5v130.2c0,29.5-24,53.5-53.5,53.5H184.6c-29.5,0-53.5-24-53.5-53.5V184.9
			C131.2,155.4,155.1,131.4,184.6,131.4L184.6,131.4z"/>
	</g>
</g>
<g id="XMLID_19_" class="st0">
	
		<linearGradient id="XMLID_00000009567157056439656460000015997367748876598934_" gradientUnits="userSpaceOnUse" x1="249.907" y1="24.8256" x2="249.907" y2="474.8256">
		<stop  offset="0" style="stop-color:#39AEF0"/>
		<stop  offset="1" style="stop-color:#259ED8"/>
	</linearGradient>
	
		<path id="XMLID_22_" style="display:inline;fill-rule:evenodd;clip-rule:evenodd;fill:url(#XMLID_00000009567157056439656460000015997367748876598934_);" d="
		M403.1,474.8H96.7c-39.5,0-71.8-32.3-71.8-71.8V96.6c0-39.5,32.3-71.8,71.8-71.8h306.4c39.5,0,71.8,32.3,71.8,71.8V403
		C474.9,442.5,442.6,474.8,403.1,474.8z"/>
	<g id="XMLID_189_" class="st2">
		<path id="XMLID_73_" class="st3" d="M116.3,244.1c61.9-25.9,136.7-62.8,201.5-87.8c59.9-21.9,58.9-16,49.9,43.9
			c-7,47.9-15,95.8-22.9,143.7c-3,22.9-15,34.9-39.9,20.9L227,310c-11-9-8-16,1-24.9l71.8-67.8c19-19,10-25.9-12-11L189.1,273
			c-14,10-28.9,10-44.9,5l-33.9-12C88.4,258.1,105.3,249.1,116.3,244.1L116.3,244.1z"/>
	</g>
</g>
<g id="XMLID_26_" class="st0">
	
		<linearGradient id="XMLID_00000020372833079325344690000013038785730176699017_" gradientUnits="userSpaceOnUse" x1="249.907" y1="24.8256" x2="249.907" y2="474.8256">
		<stop  offset="0" style="stop-color:#42EF62"/>
		<stop  offset="0.9952" style="stop-color:#19CB3C"/>
	</linearGradient>
	
		<path id="XMLID_20_" style="display:inline;fill-rule:evenodd;clip-rule:evenodd;fill:url(#XMLID_00000020372833079325344690000013038785730176699017_);" d="
		M403.1,474.8H96.7c-39.5,0-71.8-32.3-71.8-71.8V96.6c0-39.5,32.3-71.8,71.8-71.8h306.4c39.5,0,71.8,32.3,71.8,71.8V403
		C474.9,442.5,442.6,474.8,403.1,474.8z"/>
	<path id="XMLID_7_" class="st8" d="M199.2,184.7c7.9-5.1,13-1.4,15.9,6.5l7.2,18.8c0,0,5.1,10.1-7.9,20.2c-2.2,1.4-2.2,1.4-1.4,5.1
		c2.9,8.7,14.4,34.7,51.3,54.9c3.6,2.2,4.3,2.2,7.9-0.7c2.9-2.9,6.5-6.5,9.4-9.4c6.5-5.8,10.1-7.9,15.9-3.6c4.3,2.9,8.7,6.5,13,9.4
		c4.3,3.6,11.6,7.9,4.3,16.6l-6.5,7.9c-9.4,11.6-17.3,12.3-29.6,9.4c-46.9-12.3-81.6-45.5-96.8-92.4
		C176.8,209.2,184,194.1,199.2,184.7L199.2,184.7z M249.8,107.4c78.7,0,142.2,63.5,142.2,142.2c0,78.7-63.5,142.2-142.2,142.2
		c-21.7,0-41.9-4.3-59.9-13l-75.8,13l10.1-75.1l-0.7-1.4c-10.1-19.5-15.9-41.9-15.9-65.7C107.5,171,171.1,107.4,249.8,107.4
		L249.8,107.4z M160.2,360.1l20.2-3.6l12.3-2.2c17.3,9.4,36.1,14.4,57,14.4c65.7,0,119.1-53.4,119.1-119.1
		c0-65.7-53.4-119.1-119.1-119.1S130.6,184,130.6,249.7c0,23.8,7.2,45.5,18.8,64.3l-1.4,10.8l-2.9,21.7l-2.2,16.6L160.2,360.1z"/>
</g>
<g class="st0">
	<path id="XMLID_00000038370971424923589190000001378018008959703961_" class="st9" d="M403.1,474.8H96.7
		c-39.5,0-71.8-32.3-71.8-71.8V96.6c0-39.5,32.3-71.8,71.8-71.8h306.4c39.5,0,71.8,32.3,71.8,71.8V403
		C474.9,442.5,442.6,474.8,403.1,474.8z"/>
	<g class="st2">
		<path class="st10" d="M318.3,240.4c-1.3-0.6-2.4-1.1-3.7-1.8c-2.2-40.7-24.4-64-61.7-64.3c-0.2,0-0.3,0-0.5,0
			c-22.3,0-40.8,9.5-52.4,26.8l20.6,14.1c8.5-13,22-15.7,31.8-15.7c0.2,0,0.2,0,0.3,0c12.2,0,21.5,3.7,27.6,10.6
			c4.3,5.1,7.2,12.1,8.7,20.9c-10.9-1.9-22.7-2.4-35.4-1.8c-35.5,2.1-58.3,22.8-56.7,51.4c0.8,14.6,8,27.2,20.4,35.4
			c10.4,6.9,23.9,10.3,38.1,9.5c18.5-1,33.1-8,43.2-21.1c7.7-9.8,12.5-22.5,14.8-38.6c8.8,5.3,15.4,12.4,19,20.7
			c6.1,14.3,6.6,37.9-12.7,57.2c-16.9,16.9-37.1,24.1-67.8,24.4c-33.9-0.3-59.6-11.1-76.3-32.5c-15.6-19.9-23.8-48.7-24.1-85.3
			c0.3-36.8,8.4-65.6,24.1-85.3c16.7-21.2,42.4-32.1,76.3-32.5c34.2,0.3,60.4,11.2,77.8,32.6c8.5,10.4,14.9,23.6,19.1,39.1l24.1-6.4
			c-5.1-19-13.2-35.2-24.1-48.7c-22.2-27.3-54.8-41.5-96.7-41.6h-0.2c-41.8,0.3-73.9,14.3-95.6,41.8
			c-19.3,24.4-29.1,58.5-29.4,101.1v0.2v0.2c0.3,42.6,10.3,76.7,29.4,101.1c21.5,27.5,53.8,41.6,95.6,41.8h0.2
			c37.1-0.3,63.5-10,85-31.5c28.3-28.3,27.5-63.6,18.2-85.3C348.5,261.5,335.6,248.8,318.3,240.4 M254,300.8
			c-15.6,0.8-31.7-6.1-32.5-21.1c-0.6-11.1,7.9-23.5,33.4-24.9c2.9-0.2,5.8-0.3,8.7-0.3c9.3,0,18,1,25.9,2.6
			C286.6,294.1,269.3,300,254,300.8"/>
	</g>
</g>
<g>
	<path id="XMLID_00000084532560676808585450000003499099613648087468_" class="st11" d="M403.1,474.8H96.7
		c-39.5,0-71.8-32.3-71.8-71.8V96.6c0-39.5,32.3-71.8,71.8-71.8h306.4c39.5,0,71.8,32.3,71.8,71.8V403
		C474.9,442.5,442.6,474.8,403.1,474.8z"/>
	<path class="st10" d="M374.8,154.5c-12.7-12.3-28.4-18.5-44.7-18.5s-32.3,6.2-44.7,18.5L266,173.8c6.7,3.6,13.2,7.8,18.8,13.4
		c1.5,1.5,2.6,2.9,4,4.4l16.9-16.9c6.5-6.5,14.8-10.2,24.5-10.2c9.3,0,17.9,3.6,24.5,10.2c6.5,6.5,10.2,15.2,10.2,24.5
		c0,9.3-3.6,17.9-10.2,24.5l-59.5,59.5c-6.5,6.1-15.2,10.1-24.3,10.1c-9.3,0-17.9-3.6-24.5-10.2c-6.6-6.5-10.6-15.2-10.6-24.5
		c0-9.3,3.6-17.9,10.2-24.5l2-1.6c-0.9-1.7-2-3.6-3.3-4.9c-3.8-3.8-8.9-6-14.3-6c-5.3,0-10.3,2.1-14.2,5.8
		c-13.8,24.1-10.6,55.2,10.1,75.8c12.3,12.3,28.6,18.5,44.7,18.5c16.1,0,32.3-6.2,44.7-18.5l59.5-59.5
		c12.7-12.7,18.9-29.5,18.5-46.2C392.9,181.6,386.9,166.4,374.8,154.5z M211.9,309.1L195,326c-6.5,6.2-15.2,10.2-24.5,10.2
		c-9.3,0-17.9-3.6-24.5-10.2c-6.5-6.5-10.2-15.2-10.2-24.5c0-9.3,3.6-17.9,10.2-24.5l59.5-59.5c6.5-6.5,14.8-10.1,24.3-10.1
		c9.7,0,17.9,3.6,24.5,10.2c6.5,6.5,10.2,15.2,10.2,24.5c0,9.3-3.6,17.9-10.2,24.5l-1.6,1.6c0.9,1.7,1.9,3.6,3.3,5
		c3.8,3.8,9,6,14.4,6c5.3,0,10.3-2.1,14.2-5.8c13.8-24.1,10.6-55.2-10.1-75.8c-12.7-12.3-28.6-18.5-44.7-18.5s-32.3,6.2-44.6,18.5
		l-59.5,59.5c-12.3,12.3-18.5,28.4-18.5,44.7c0,16.1,6.2,32.3,18.5,44.7c12.3,12.3,28.4,18.5,44.7,18.5c16.1,0,32.3-6.2,44.7-18.5
		l19.3-19.3c-6.7-3.6-13.2-7.8-18.8-13.4C214.4,312.1,213.2,310.5,211.9,309.1z"/>
</g>
<path class="st12" d="M170.5,339.3c0.1-0.1,0.3-0.1,0.4,0.1c-0.1,0.1-0.3,0.2-0.4,0.4C170.5,339.6,170.5,339.5,170.5,339.3z"/>
<g class="st0">
	<path id="XMLID_00000178907945964234014870000006276038434975654541_" class="st13" d="M403.1,474.8H96.7
		c-39.5,0-71.8-32.3-71.8-71.8V96.6c0-39.5,32.3-71.8,71.8-71.8h306.4c39.5,0,71.8,32.3,71.8,71.8V403
		C474.9,442.5,442.6,474.8,403.1,474.8z"/>
	<g class="st2">
		<circle class="st10" cx="196.5" cy="215.7" r="18.5"/>
		<circle class="st10" cx="249.8" cy="215.7" r="18.5"/>
		<circle class="st10" cx="303.2" cy="215.7" r="18.5"/>
		<path class="st10" d="M106.3,158.4v122.7c0,19.4,16.3,35.4,36.9,36.9V380l88.2-61.8h122.2c22.1,0,40-16.6,40-37V158.4
			c0-20.4-18-37-40-37H146.3C124.3,121.4,106.3,138,106.3,158.4z M123.4,158.4c0-11,10.3-19.9,22.9-19.9h207.2
			c12.6,0,22.9,8.9,22.9,19.9v122.7c0,11-10.3,19.9-22.9,19.9H225.9l-65.6,46v-46h-14c-12.6,0-22.9-8.9-22.9-19.9V158.4z"/>
	</g>
</g>
</svg>
