<?xml version="1.0" encoding="UTF-8"?>
<svg xmlns="http://www.w3.org/2000/svg" version="1.1" xmlns:xlink="http://www.w3.org/1999/xlink" viewBox="0 0 500 500">
  <defs>
    <style>
      .cls-1 {
        fill: #710faa;
      }

      .cls-1, .cls-2, .cls-3, .cls-4, .cls-5, .cls-6, .cls-7, .cls-8, .cls-9 {
        fill-rule: evenodd;
      }

      .cls-10 {
        fill: #cacaca;
      }

      .cls-10, .cls-11 {
        display: none;
      }

      .cls-12, .cls-2 {
        fill: #fff;
      }

      .cls-3 {
        fill: url(#linear-gradient-3);
      }

      .cls-4 {
        fill: #0b66c3;
      }

      .cls-5 {
        fill: #1aa2f8;
      }

      .cls-6 {
        fill: url(#linear-gradient-2);
      }

      .cls-7 {
        fill: url(#linear-gradient-4);
      }

      .cls-9 {
        fill: url(#linear-gradient);
      }
    </style>
    <linearGradient id="linear-gradient" x1="249.9" y1="475.1" x2="249.9" y2="25.1" gradientTransform="translate(0 499.9) scale(1 -1)" gradientUnits="userSpaceOnUse">
      <stop offset="0" stop-color="#19aeff"/>
      <stop offset="1" stop-color="#0065e7"/>
    </linearGradient>
    <linearGradient id="linear-gradient-2" x1="30.2" y1="435.7" x2="469.6" y2="64.4" gradientTransform="translate(0 499.9) scale(1 -1)" gradientUnits="userSpaceOnUse">
      <stop offset="0" stop-color="#0496fb"/>
      <stop offset=".1" stop-color="#3f72ff"/>
      <stop offset=".3" stop-color="#784aff"/>
      <stop offset=".4" stop-color="#b038ee"/>
      <stop offset=".6" stop-color="#cd40be"/>
      <stop offset=".7" stop-color="#ff415a"/>
      <stop offset=".9" stop-color="#f7941e"/>
      <stop offset=".9" stop-color="#ffe800"/>
    </linearGradient>
    <linearGradient id="linear-gradient-3" x1="249.9" y1="475.1" x2="249.9" y2="25.1" gradientTransform="translate(0 499.9) scale(1 -1)" gradientUnits="userSpaceOnUse">
      <stop offset="0" stop-color="#39aef0"/>
      <stop offset="1" stop-color="#259ed8"/>
    </linearGradient>
    <linearGradient id="linear-gradient-4" x1="249.9" y1="475.1" x2="249.9" y2="25.1" gradientTransform="translate(0 499.9) scale(1 -1)" gradientUnits="userSpaceOnUse">
      <stop offset="0" stop-color="#42ef62"/>
      <stop offset="1" stop-color="#19cb3c"/>
    </linearGradient>
  </defs>
  <!-- Generator: Adobe Illustrator 28.6.0, SVG Export Plug-In . SVG Version: 1.1.0 Build 98)  -->
  <g>
    <g id="Layer_1">
      <g class="cls-11">
        <path class="cls-9" d="M403.1,474.8H96.7c-39.5,0-71.8-32.3-71.8-71.8V96.6c0-39.5,32.3-71.8,71.8-71.8h306.4c39.5,0,71.8,32.3,71.8,71.8v306.4c0,39.5-32.3,71.8-71.8,71.8Z"/>
        <path class="cls-2" d="M207.8,419.6h61.3v-141.5h45.3l9.1-57.2h-54.4v-43.2c0-16,15.3-25.1,30-25.1h26.5v-47.4l-47.4-2.1c-45.3-2.8-70.4,32.8-70.4,75.3v42.6h-51.6v57.2h51.6v141.4h0Z"/>
      </g>
      <g class="cls-11">
        <path class="cls-5" d="M403.1,474.8H96.7c-39.5,0-71.8-32.3-71.8-71.8V96.6c0-39.5,32.3-71.8,71.8-71.8h306.4c39.5,0,71.8,32.3,71.8,71.8v306.4c0,39.5-32.3,71.8-71.8,71.8Z"/>
        <path class="cls-2" d="M252.2,210c-11.1-58.3,59.1-93.1,100.4-51,0,0,18.5-5.2,34.7-15.5,0,0-5.9,19.9-25.8,32.5,0,0,22.2-3,31.8-8.9,0,0-9.6,19.9-27.3,27.3,9.6,133.7-134.4,214.9-251.1,148.5,0,0,57.6,3,82-25.1,0,0-35.5,3-53.2-39.9,0,0,13.3,5.2,26.6-1.5,0,0-41.4-6.6-45.1-56.1,0,0,13.3,10.3,28.1,6.6,0,0-45.8-27.3-19.9-76.8-.1,0,48.7,62.1,118.8,59.9h0Z"/>
      </g>
      <g class="cls-11">
        <path class="cls-6" d="M403.1,474.8H96.7c-39.5,0-71.8-32.3-71.8-71.8V96.6c0-39.5,32.3-71.8,71.8-71.8h306.4c39.5,0,71.8,32.3,71.8,71.8v306.4c0,39.5-32.3,71.8-71.8,71.8Z"/>
        <path class="cls-2" d="M183.9,106.7h132.3c42.5,0,77.4,35,77.4,77.4v131.6c0,42.5-35,77.4-77.4,77.4h-132.3c-42.5,0-77.4-35-77.4-77.4v-131.5c0-42.5,34.9-77.5,77.4-77.5h0ZM327.2,156.8h0c8.9,0,16.4,7.5,16.4,16.4h0c0,8.9-7.5,16.4-16.4,16.4h0c-9.6,0-16.4-7.5-16.4-16.4h0c-.1-8.9,6.8-16.4,16.4-16.4h0ZM249.7,171.9h.7c42.5,0,78.1,35.6,78.1,78.1h0c0,43.2-35.6,78.1-78.1,78.1h-.7c-42.5,0-77.4-35-77.4-78.1h0c0-42.5,34.9-78.1,77.4-78.1h0ZM249.7,198.6h.7c28.1,0,51.4,23.3,51.4,51.4h0c0,28.8-23.3,52.1-51.4,52.1h-.7c-28.1,0-51.4-23.3-51.4-52.1h0c0-28.1,23.3-51.4,51.4-51.4h0ZM184.6,131.4h130.9c29.5,0,53.5,24,53.5,53.5v130.2c0,29.5-24,53.5-53.5,53.5h-130.9c-29.5,0-53.5-24-53.5-53.5v-130.2c0-29.5,24-53.5,53.5-53.5h0Z"/>
      </g>
      <g class="cls-11">
        <path class="cls-3" d="M403.1,474.8H96.7c-39.5,0-71.8-32.3-71.8-71.8V96.6c0-39.5,32.3-71.8,71.8-71.8h306.4c39.5,0,71.8,32.3,71.8,71.8v306.4c0,39.5-32.3,71.8-71.8,71.8Z"/>
        <path class="cls-2" d="M116.3,244.1c61.9-25.9,136.7-62.8,201.5-87.8,59.9-21.9,58.9-16,49.9,43.9-7,47.9-15,95.8-22.9,143.7-3,22.9-15,34.9-39.9,20.9l-77.9-54.8c-11-9-8-16,1-24.9l71.8-67.8c19-19,10-25.9-12-11l-98.7,66.7c-14,10-28.9,10-44.9,5l-33.9-12c-21.9-7.9-5-16.9,6-21.9h0Z"/>
      </g>
      <g class="cls-11">
        <path class="cls-7" d="M403.1,474.8H96.7c-39.5,0-71.8-32.3-71.8-71.8V96.6c0-39.5,32.3-71.8,71.8-71.8h306.4c39.5,0,71.8,32.3,71.8,71.8v306.4c0,39.5-32.3,71.8-71.8,71.8Z"/>
        <path class="cls-2" d="M199.2,184.7c7.9-5.1,13-1.4,15.9,6.5l7.2,18.8s5.1,10.1-7.9,20.2q-2.2,1.4-1.4,5.1c2.9,8.7,14.4,34.7,51.3,54.9,3.6,2.2,4.3,2.2,7.9-.7l9.4-9.4c6.5-5.8,10.1-7.9,15.9-3.6,4.3,2.9,8.7,6.5,13,9.4,4.3,3.6,11.6,7.9,4.3,16.6l-6.5,7.9c-9.4,11.6-17.3,12.3-29.6,9.4-46.9-12.3-81.6-45.5-96.8-92.4-5.1-18.2,2.1-33.3,17.3-42.7h0ZM249.8,107.4c78.7,0,142.2,63.5,142.2,142.2s-63.5,142.2-142.2,142.2-41.9-4.3-59.9-13l-75.8,13,10.1-75.1-.7-1.4c-10.1-19.5-15.9-41.9-15.9-65.7,0-78.6,63.5-142.2,142.2-142.2h0ZM160.2,360.1l20.2-3.6,12.3-2.2c17.3,9.4,36.1,14.4,57,14.4,65.7,0,119.1-53.4,119.1-119.1s-53.4-119.1-119.1-119.1-119.1,53.5-119.1,119.2,7.2,45.5,18.8,64.3l-1.4,10.8-2.9,21.7-2.2,16.6,17.3-3Z"/>
      </g>
      <g class="cls-11">
        <path class="cls-8" d="M403.1,474.8H96.7c-39.5,0-71.8-32.3-71.8-71.8V96.6c0-39.5,32.3-71.8,71.8-71.8h306.4c39.5,0,71.8,32.3,71.8,71.8v306.4c0,39.5-32.3,71.8-71.8,71.8Z"/>
        <path class="cls-12" d="M318.3,240.4c-1.3-.6-2.4-1.1-3.7-1.8-2.2-40.7-24.4-64-61.7-64.3h-.5c-22.3,0-40.8,9.5-52.4,26.8l20.6,14.1c8.5-13,22-15.7,31.8-15.7h.3c12.2,0,21.5,3.7,27.6,10.6,4.3,5.1,7.2,12.1,8.7,20.9-10.9-1.9-22.7-2.4-35.4-1.8-35.5,2.1-58.3,22.8-56.7,51.4.8,14.6,8,27.2,20.4,35.4,10.4,6.9,23.9,10.3,38.1,9.5,18.5-1,33.1-8,43.2-21.1,7.7-9.8,12.5-22.5,14.8-38.6,8.8,5.3,15.4,12.4,19,20.7,6.1,14.3,6.6,37.9-12.7,57.2s-37.1,24.1-67.8,24.4c-33.9-.3-59.6-11.1-76.3-32.5-15.6-19.9-23.8-48.7-24.1-85.3.3-36.8,8.4-65.6,24.1-85.3,16.7-21.2,42.4-32.1,76.3-32.5,34.2.3,60.4,11.2,77.8,32.6,8.5,10.4,14.9,23.6,19.1,39.1l24.1-6.4c-5.1-19-13.2-35.2-24.1-48.7-22.2-27.3-54.8-41.5-96.7-41.6h-.2c-41.8.3-73.9,14.3-95.6,41.8-19.3,24.4-29.1,58.5-29.4,101.1v.4c.3,42.6,10.3,76.7,29.4,101.1,21.5,27.5,53.8,41.6,95.6,41.8h.2c37.1-.3,63.5-10,85-31.5s27.5-63.6,18.2-85.3c-6.8-15.4-19.7-28.1-37-36.5M254,300.8c-15.6.8-31.7-6.1-32.5-21.1-.6-11.1,7.9-23.5,33.4-24.9,2.9-.2,5.8-.3,8.7-.3,9.3,0,18,1,25.9,2.6-2.9,37-20.2,42.9-35.5,43.7"/>
      </g>
      <g class="cls-11">
        <path class="cls-4" d="M403.1,474.8H96.7c-39.5,0-71.8-32.3-71.8-71.8V96.6c0-39.5,32.3-71.8,71.8-71.8h306.4c39.5,0,71.8,32.3,71.8,71.8v306.4c0,39.5-32.3,71.8-71.8,71.8Z"/>
        <path class="cls-12" d="M374.8,154.5c-12.7-12.3-28.4-18.5-44.7-18.5s-32.3,6.2-44.7,18.5l-19.4,19.3c6.7,3.6,13.2,7.8,18.8,13.4,1.5,1.5,2.6,2.9,4,4.4l16.9-16.9c6.5-6.5,14.8-10.2,24.5-10.2s17.9,3.6,24.5,10.2c6.5,6.5,10.2,15.2,10.2,24.5s-3.6,17.9-10.2,24.5l-59.5,59.5c-6.5,6.1-15.2,10.1-24.3,10.1s-17.9-3.6-24.5-10.2c-6.6-6.5-10.6-15.2-10.6-24.5s3.6-17.9,10.2-24.5l2-1.6c-.9-1.7-2-3.6-3.3-4.9-3.8-3.8-8.9-6-14.3-6s-10.3,2.1-14.2,5.8c-13.8,24.1-10.6,55.2,10.1,75.8,12.3,12.3,28.6,18.5,44.7,18.5s32.3-6.2,44.7-18.5l59.5-59.5c12.7-12.7,18.9-29.5,18.5-46.2-.8-15.9-6.8-31.1-18.9-43ZM211.9,309.1l-16.9,16.9c-6.5,6.2-15.2,10.2-24.5,10.2s-17.9-3.6-24.5-10.2-10.2-15.2-10.2-24.5,3.6-17.9,10.2-24.5l59.5-59.5c6.5-6.5,14.8-10.1,24.3-10.1s17.9,3.6,24.5,10.2c6.5,6.5,10.2,15.2,10.2,24.5s-3.6,17.9-10.2,24.5l-1.6,1.6c.9,1.7,1.9,3.6,3.3,5,3.8,3.8,9,6,14.4,6s10.3-2.1,14.2-5.8c13.8-24.1,10.6-55.2-10.1-75.8-12.7-12.3-28.6-18.5-44.7-18.5s-32.3,6.2-44.6,18.5l-59.5,59.5c-12.3,12.3-18.5,28.4-18.5,44.7s6.2,32.3,18.5,44.7c12.3,12.3,28.4,18.5,44.7,18.5s32.3-6.2,44.7-18.5l19.3-19.3c-6.7-3.6-13.2-7.8-18.8-13.4-1.2-1.7-2.4-3.3-3.7-4.7Z"/>
      </g>
      <path class="cls-10" d="M170.5,339.3c.1-.1.3-.1.4.1-.1.1-.3.2-.4.4v-.5Z"/>
      <path class="cls-1" d="M401.7,477.3H95.3c-39.5,0-71.8-32.3-71.8-71.8V99.1c0-39.5,32.3-71.8,71.8-71.8h306.4c39.5,0,71.8,32.3,71.8,71.8v306.4c0,39.5-32.3,71.8-71.8,71.8Z"/>
      <g>
        <polygon class="cls-12" points="294 271.9 309.1 261.8 383.9 311.6 383.9 311.6 383.9 311.6 309.1 361.5 294 351.4 353.6 311.6 294 271.9"/>
        <polygon class="cls-12" points="203 152.5 187.9 142.4 113.1 192.3 113.1 192.3 113.1 192.3 187.9 242.2 203 232.1 143.4 192.3 203 152.5"/>
        <rect class="cls-12" x="240.8" y="114.4" width="19.1" height="282.4" transform="translate(254.1 -102.2) rotate(45)"/>
      </g>
    </g>
  </g>
</svg>